<?xml version="1.0" encoding="UTF-8"?>
<svg version="1.1" xmlns="http://www.w3.org/2000/svg" width="1024" height="1024">
<path d="M0 0 C337.92 0 675.84 0 1024 0 C1024 337.92 1024 675.84 1024 1024 C686.08 1024 348.16 1024 0 1024 C0 686.08 0 348.16 0 0 Z " fill="#FDFDFD" transform="translate(0,0)"/>
<path d="M0 0 C2.6785129 0.54943854 5.36395287 1.05664762 8.05029297 1.56640625 C19.94232133 3.87693311 31.41890074 6.78618726 42.88769531 10.68066406 C45.75704555 11.62107345 48.64864092 12.4739058 51.54248047 13.3359375 C58.28599204 15.40195355 64.78708718 17.90926977 71.30419922 20.59765625 C72.4755542 21.07992676 73.64690918 21.56219727 74.85375977 22.05908203 C97.94598904 31.66185348 119.78967276 43.10383181 140.30419922 57.47265625 C140.84415527 57.84422852 141.38411133 58.21580078 141.94042969 58.59863281 C150.18541829 64.27474937 157.90017339 70.3396215 165.45263672 76.90820312 C166.85004875 78.08892785 168.27101392 79.24185655 169.70263672 80.38085938 C176.67745886 85.9415942 183.04750083 91.90551859 189.32080078 98.22851562 C190.92767229 99.84611912 192.54498416 101.45272538 194.16357422 103.05859375 C200.66642579 109.55319832 206.58897053 116.26740114 212.30419922 123.47265625 C213.71717136 125.16325094 215.13342339 126.85111446 216.55419922 128.53515625 C241.64762436 159.34551826 261.15145941 195.48516647 273.55615234 233.21484375 C274.21526273 235.20422131 274.90576725 237.18313885 275.60107422 239.16015625 C294.44480556 294.95717894 295.96761365 359.39592994 282.30419922 416.47265625 C282.1445166 417.16617187 281.98483398 417.8596875 281.8203125 418.57421875 C270.56509085 467.38874353 248.16826791 513.14792219 217.30419922 552.47265625 C216.8449707 553.05789063 216.38574219 553.643125 215.91259766 554.24609375 C211.30107557 560.08034042 206.42351657 565.65087032 201.41357422 571.14453125 C199.54744355 573.20418658 197.73350134 575.2965452 195.92919922 577.41015625 C164.90254796 612.97202567 122.79683908 638.97237921 80.30419922 658.47265625 C79.55299805 658.81989746 78.80179688 659.16713867 78.02783203 659.52490234 C69.29300213 663.54371637 60.55502289 666.80609369 51.30419922 669.47265625 C49.90540641 669.94311354 48.50929749 670.42166732 47.11669922 670.91015625 C33.78665968 675.38593595 20.07368694 678.68057162 6.30419922 681.47265625 C5.05123047 681.73393311 5.05123047 681.73393311 3.77294922 682.00048828 C-42.54241727 691.5030644 -92.64548847 689.82536262 -138.69580078 679.47265625 C-139.52515137 679.29541016 -140.35450195 679.11816406 -141.20898438 678.93554688 C-167.76054984 673.23305061 -193.46667296 663.61345526 -217.69580078 651.47265625 C-218.63343262 651.00859375 -219.57106445 650.54453125 -220.53710938 650.06640625 C-250.00763844 635.40662709 -276.15047649 616.27057013 -300.69580078 594.47265625 C-301.54416504 593.72121338 -301.54416504 593.72121338 -302.40966797 592.95458984 C-307.97663172 588.00416815 -313.33578685 583.00673914 -318.12939453 577.2890625 C-319.69521994 575.4733298 -321.34482198 573.82322921 -323.07080078 572.16015625 C-327.15805743 568.11801281 -330.7405109 563.71755152 -334.31054688 559.21728516 C-335.29941823 557.97187192 -336.29238987 556.72970982 -337.28808594 555.48974609 C-345.79553998 544.88156605 -353.54795387 534.03761575 -360.69580078 522.47265625 C-361.43643502 521.29932058 -362.17731016 520.12613693 -362.91845703 518.953125 C-375.05719299 499.4959707 -384.61201309 478.99525408 -392.56787109 457.51318359 C-393.52437876 454.93475361 -394.50527072 452.36831755 -395.50048828 449.8046875 C-402.70754235 430.86113826 -406.66049336 410.46440233 -409.69580078 390.47265625 C-409.84678223 389.49748047 -409.99776367 388.52230469 -410.15332031 387.51757812 C-423.38992252 298.0170143 -398.30381776 208.37647537 -345.07080078 136.09765625 C-338.12299255 126.98661102 -330.59162795 118.34724098 -322.87939453 109.87890625 C-321.37839599 108.22485419 -319.89214169 106.55733955 -318.41845703 104.87890625 C-314.36897706 100.28257343 -310.26643758 96.05711733 -305.58251953 92.109375 C-303.74634028 90.516499 -302.06911045 88.84753469 -300.38330078 87.09765625 C-295.82145203 82.48478011 -290.78588847 78.48218306 -285.69580078 74.47265625 C-285.07914551 73.98490723 -284.46249023 73.4971582 -283.82714844 72.99462891 C-273.14772656 64.58284539 -262.15445944 56.78703348 -250.69580078 49.47265625 C-250.07560059 49.07626953 -249.45540039 48.67988281 -248.81640625 48.27148438 C-223.97931175 32.55335602 -196.84822571 19.93193569 -168.69580078 11.47265625 C-167.52662109 11.11945313 -166.35744141 10.76625 -165.15283203 10.40234375 C-161.67688097 9.38635805 -158.19034284 8.42266502 -154.69580078 7.47265625 C-153.65117676 7.18092529 -153.65117676 7.18092529 -152.58544922 6.88330078 C-104.48710305 -6.54022459 -49.25484823 -10.17880038 0 0 Z " fill="#000000" transform="translate(573.69580078125,151.52734375)"/>
<path d="M0 0 C1.32402832 0.64243652 1.32402832 0.64243652 2.67480469 1.29785156 C20.11755349 9.84723758 35.51671122 20.08681213 50 33 C50.81380127 33.71325439 50.81380127 33.71325439 51.64404297 34.44091797 C90.5196407 68.57252959 113.40694009 117.91976761 116.83886719 169.20507812 C118.04061508 190.04994159 116.46595417 211.0527427 110 231 C109.78956055 231.67289063 109.57912109 232.34578125 109.36230469 233.0390625 C98.86873297 266.06604071 78.33045456 295.39275127 59.10009766 323.88061523 C56.99224052 327.01152557 54.90088723 330.15295227 52.8125 333.296875 C49.72661624 337.92949444 46.59292062 342.52073672 43.375 347.0625 C42.87629395 347.76802002 42.37758789 348.47354004 41.86376953 349.20043945 C37.34791918 355.5617831 32.72381145 361.84141074 28.08056641 368.11010742 C24.58653369 372.83068616 21.14164141 377.58043392 17.75 382.375 C14.2893416 387.25866775 10.70561724 392.03098 7.03027344 396.75537109 C3.26827575 401.60820286 -0.36916756 406.54855463 -4 411.5 C-9.56512061 419.08329875 -15.23256672 426.56962346 -21 434 C-22.58407152 436.0619331 -24.16738522 438.12444859 -25.75 440.1875 C-34.37042878 451.40180805 -43.06604215 462.55828059 -51.81616211 473.67163086 C-55.5624756 478.43352359 -59.28262673 483.21549592 -63 488 C-64.18612971 489.52479265 -65.37232688 491.04953281 -66.55859375 492.57421875 C-68.76280239 495.40732048 -70.96281752 498.2435997 -73.16015625 501.08203125 C-74.12742389 502.32566107 -75.09486178 503.5691585 -76.0625 504.8125 C-76.49111328 505.36873047 -76.91972656 505.92496094 -77.36132812 506.49804688 C-80.03984902 509.92976953 -82.87403463 512.98547724 -86 516 C-92.33328529 508.58019173 -98.35804566 500.98028729 -104.25292969 493.20898438 C-107.248288 489.26800148 -110.28057605 485.37662745 -113.4375 481.5625 C-123.19138252 469.76545447 -132.3863969 457.52514993 -141.53149414 445.25439453 C-145.28369037 440.23683778 -149.11447322 435.30210386 -153.0625 430.4375 C-159.41789073 422.59868529 -165.34540303 414.46021413 -171.29931641 406.31494141 C-173.90156079 402.77281088 -176.54312792 399.26072861 -179.1875 395.75 C-184.85553806 388.21278467 -190.44827149 380.62321247 -196 373 C-196.73573242 371.99211426 -196.73573242 371.99211426 -197.48632812 370.96386719 C-225.06154743 333.157995 -252.75716345 294.33023064 -273 252 C-273.70382812 250.56333984 -273.70382812 250.56333984 -274.421875 249.09765625 C-277.97586531 241.62769514 -280.54527175 233.88231078 -283 226 C-283.30035156 225.05125 -283.60070312 224.1025 -283.91015625 223.125 C-288.00884839 209.28419037 -288.37719012 195.19106146 -288.3125 180.875 C-288.31034485 180.01560822 -288.3081897 179.15621643 -288.30596924 178.27078247 C-288.20542743 153.26638256 -284.74027351 128.86852082 -274 106 C-273.55011719 104.98421875 -273.10023438 103.9684375 -272.63671875 102.921875 C-251.89798414 56.63704413 -215.94047144 20.46106865 -170 -1 C-168.87335938 -1.53367188 -167.74671875 -2.06734375 -166.5859375 -2.6171875 C-114.57381826 -26.12617817 -51.1557006 -25.0948774 0 0 Z " fill="#FDFDFD" transform="translate(598,244)"/>
<path d="M0 0 C0.79436462 0.00370605 1.58872925 0.00741211 2.40716553 0.01123047 C21.7223944 0.1396064 36.96394841 3.71138767 54.25 12.4375 C54.88953613 12.75734863 55.52907227 13.07719727 56.18798828 13.40673828 C67.26767401 19.05055388 76.5763445 26.55634078 85.25 35.4375 C83.77535076 39.14032804 81.89171558 40.65935756 78.625 42.875 C70.85514614 48.3464416 63.56662953 54.3792723 56.25 60.4375 C55.65864258 60.92686035 55.06728516 61.4162207 54.45800781 61.92041016 C47.44159002 67.74593107 40.63654409 73.76161114 33.9453125 79.95703125 C31.76169509 81.9665922 29.55762269 83.93517642 27.3125 85.875 C23.92579656 88.81754561 20.61109043 91.83444728 17.3125 94.875 C16.77165771 95.3709668 16.23081543 95.86693359 15.67358398 96.37792969 C12.35087979 99.44095119 9.0958563 102.56029888 5.87890625 105.734375 C5.13181396 106.46213135 4.38472168 107.1898877 3.61499023 107.93969727 C2.14812691 109.37074834 0.69266727 110.81360489 -0.74975586 112.26928711 C-4.01603681 115.43622531 -6.11556251 117.24651469 -10.5390625 118.578125 C-13.75 118.4375 -13.75 118.4375 -15.71875 117.28515625 C-16.2240625 116.69605469 -16.729375 116.10695313 -17.25 115.5 C-17.8275 114.85160156 -18.405 114.20320313 -19 113.53515625 C-19.5775 112.84292969 -20.155 112.15070313 -20.75 111.4375 C-21.91537699 110.1030393 -23.08204189 108.76970222 -24.25 107.4375 C-24.83007812 106.76976562 -25.41015625 106.10203125 -26.0078125 105.4140625 C-35.32002655 94.69532696 -35.32002655 94.69532696 -47.8515625 89.234375 C-57.02630954 89.06394626 -63.09021172 91.0948445 -69.75 97.4375 C-72.44981965 101.48722947 -72.62535483 104.77123845 -71.75 109.4375 C-67.7332954 118.69787684 -61.01013178 126.60739826 -54.75 134.4375 C-54.05648437 135.32566406 -53.36296875 136.21382812 -52.6484375 137.12890625 C-48.58929576 142.29582173 -44.32417079 147.22199009 -39.89453125 152.07421875 C-38.01548887 154.1449303 -36.18985594 156.24828337 -34.375 158.375 C-23.17856756 172.1160411 -23.17856756 172.1160411 -7.75 179.1875 C-2.3682484 178.77756189 0.8067367 175.29586026 4.25 171.4375 C6.62786844 168.45218482 8.81453517 165.35393366 10.9921875 162.22070312 C13.55874021 158.58209657 16.22694594 155.0169611 18.875 151.4375 C20.09007931 149.79053835 21.3049193 148.14340011 22.51953125 146.49609375 C23.13393066 145.66319824 23.74833008 144.83030273 24.38134766 143.97216797 C26.23884662 141.45262861 28.09436166 138.93164101 29.94921875 136.41015625 C36.341748 127.72139822 42.73925414 119.03824999 49.25 110.4375 C49.72228027 109.81198242 50.19456055 109.18646484 50.68115234 108.54199219 C58.21079798 98.57998387 65.93738677 88.80792719 73.85302734 79.15039062 C75.71514231 76.86716821 77.5458723 74.55969282 79.375 72.25 C88.19192716 61.19622029 97.50056206 50.53206028 107 40.0625 C107.47244141 39.537771 107.94488281 39.01304199 108.43164062 38.47241211 C111.81344518 34.76706223 114.36244887 32.15380584 119.5 31.8125 C122.5231666 31.87682269 123.92021362 32.20022201 126.39453125 33.98046875 C129.38548092 37.12979864 131.05146188 39.54407846 132 43.8125 C129.73702593 54.75020799 121.47211961 66.31816257 112.84765625 73.4140625 C110.90347167 75.4263886 110.90347167 75.4263886 111.37109375 78.6328125 C112.16151385 82.05445328 112.95232346 85.47586402 113.76171875 88.89306641 C118.07137071 107.82420599 117.71905716 126.81829023 112.25 145.4375 C111.96125 146.49582031 111.6725 147.55414063 111.375 148.64453125 C102.34815606 178.74744385 80.5738689 202.59428327 53.31347656 217.35058594 C28.49972877 230.42096042 -3.80287769 234.30750102 -30.78271484 226.07470703 C-47.29121899 220.72757427 -62.80447387 213.08006733 -75.75 201.4375 C-76.87921875 200.52097656 -76.87921875 200.52097656 -78.03125 199.5859375 C-99.68125234 181.67132288 -112.70891283 153.16599469 -115.43359375 125.5625 C-117.94589814 95.38621702 -109.91553479 66.14944842 -90.48046875 42.56640625 C-67.05662915 15.26302016 -36.13027922 -0.30203739 0 0 Z " fill="#010101" transform="translate(511.75,310.5625)"/>
</svg>
